<svg id="Camada_1" data-name="Camada 1" xmlns="http://www.w3.org/2000/svg" viewBox="0 0 1041.09 278"><defs><style>.cls-1{font-size:105.02px;font-family:Montserrat-Regular, Montserrat;}.cls-2{letter-spacing:-0.01em;}.cls-3{letter-spacing:-0.01em;}.cls-4{fill:#39b54a;font-size:250px;}.cls-5{font-size:105px;letter-spacing:0em;}.cls-6{fill:#3ea85c;}</style></defs><title>Logo Gulbenkian</title><text class="cls-1" transform="translate(0 212.5) scale(0.93 1)">L<tspan class="cls-2" x="61.86" y="0">I</tspan><tspan class="cls-3" x="92.73" y="0">V</tspan><tspan x="164.46" y="0">IN</tspan><tspan class="cls-4" x="281.56" y="0" xml:space="preserve">   </tspan><tspan class="cls-5" x="478.05" y="0">ULBENKIAN</tspan></text><g id="layer1"><path id="path41" class="cls-6" d="M496.1,427.78c-47.41,0-85.83,37.71-85.83,84.22s38.42,84.21,85.82,84.22h0c45.08,0,82.48-34.23,85.62-78.36H571.51c-3.11,38.6-36,68.37-75.41,68.37-41.79,0-75.66-33.23-75.66-74.23h0c0-41,33.87-74.23,75.66-74.23a75.93,75.93,0,0,1,65.18,36.56l8.79-5A86.16,86.16,0,0,0,496.1,427.78Z" transform="translate(-144.33 -354.76)"/><rect id="rect89-2" class="cls-6" x="390.29" y="163.1" width="45.18" height="8.65"/></g></svg>